<svg width="32" height="32" viewBox="0 0 32 32" fill="none" xmlns="http://www.w3.org/2000/svg">
  <path d="M15.25 15.2a4.4 4.4 0 1 0 0-8.8 4.4 4.4 0 0 0 0 8.8Z" stroke="#F5F7FF" stroke-width="1.75" stroke-linejoin="round"/>
  <path d="M7.05 24.4c.88-4.2 3.98-6.55 8.2-6.55 1.75 0 3.28.4 4.52 1.16" stroke="#F5F7FF" stroke-width="1.75" stroke-linecap="round"/>
  <path d="M21.95 12.25c2.36 0 4.38 1.38 5.35 3.38-.4.82-.98 1.53-1.7 2.08M18.3 18.35c-.72-.65-1.3-1.57-1.7-2.72.97-2 3-3.38 5.35-3.38" stroke="#8B7CFF" stroke-width="1.55" stroke-linecap="round" stroke-linejoin="round"/>
  <path d="M18.25 24.75 27 12.25" stroke="#FF607E" stroke-width="1.75" stroke-linecap="round"/>
  <path d="M21.95 17.15a1.53 1.53 0 0 0 1.52-1.53c0-.28-.08-.55-.21-.77" stroke="#53D6A4" stroke-width="1.45" stroke-linecap="round"/>
</svg>
