<svg width="28" height="28" viewBox="0 0 28 28" fill="none" xmlns="http://www.w3.org/2000/svg">
<path d="M8.15 6.15 11 5.5c.56-.13 1.13.17 1.34.71l1.12 2.9c.18.47.04 1-.35 1.32l-1.48 1.22c1.15 2.12 2.6 3.58 4.72 4.72l1.22-1.48c.32-.39.85-.53 1.32-.35l2.9 1.12c.54.21.84.78.71 1.34l-.65 2.85c-.17.73-.82 1.25-1.57 1.25C12.91 21.1 6.9 15.09 6.9 7.72c0-.75.52-1.4 1.25-1.57Z" stroke="#F5F7FF" stroke-width="2.05" stroke-linejoin="round"/>
<path d="M18.05 5.85v5.35M15.38 8.52h5.34" stroke="#FFB86B" stroke-width="1.55" stroke-linecap="round"/>
</svg>
