<svg width="28" height="28" viewBox="0 0 28 28" fill="none" xmlns="http://www.w3.org/2000/svg">
<path d="M6.7 17.2c-.34-.46-.3-1.1.11-1.51 4-3.98 10.38-3.98 14.38 0 .41.41.45 1.05.11 1.51l-1.74 2.33c-.34.46-.95.62-1.48.39l-2.3-.99c-.46-.2-.75-.65-.75-1.15v-1.54a8.3 8.3 0 0 0-2.06 0v1.54c0 .5-.29.95-.75 1.15l-2.3.99c-.53.23-1.14.07-1.48-.39L6.7 17.2Z" stroke="#F5F7FF" stroke-width="2.05" stroke-linejoin="round"/>
<path d="M9.3 16.2c2.95-1.78 6.45-1.78 9.4 0" stroke="#8B7CFF" stroke-width="1.35" stroke-linecap="round" opacity=".95"/>
<path d="M8.3 8.3 19.7 19.7" stroke="#8B7CFF" stroke-width="1.35" stroke-linecap="round" opacity=".95"/>
</svg>
