<svg width="28" height="28" viewBox="0 0 28 28" fill="none" xmlns="http://www.w3.org/2000/svg">
<path d="M8.6 6.3h5.8a3 3 0 0 1 3 3v6.4a3 3 0 0 1-3 3H8.6a3 3 0 0 1-3-3V9.3a3 3 0 0 1 3-3Z" stroke="#F5F7FF" stroke-width="2" stroke-linejoin="round"/>
<path d="m17.4 11.1 4.35-2.5c.44-.25 1 .06 1 .57v6.66c0 .51-.56.82-1 .57l-4.35-2.5" stroke="#F5F7FF" stroke-width="2" stroke-linecap="round" stroke-linejoin="round"/>
<path d="M9.15 10.2c1.45 2.95 3.28 4.78 6.25 6.25" stroke="#8B7CFF" stroke-width="1.35" stroke-linecap="round" opacity=".95"/>
<path d="m10.55 9.2.85 1.6-1.05 1.05M14.65 15.1l1.05-1.05 1.6.85" stroke="#8B7CFF" stroke-width="1.35" stroke-linecap="round" stroke-linejoin="round" opacity=".95"/>
</svg>
