<svg xmlns="http://www.w3.org/2000/svg" viewBox="0 0 24 24">
  <path fill="#4285F4" d="M21.35 12.25c0-.69-.06-1.2-.2-1.73H12v3.32h5.37a4.58 4.58 0 0 1-1.99 3.01l-.03.11 2.89 2.24.2.02c1.84-1.7 2.91-4.2 2.91-6.97Z"/>
  <path fill="#34A853" d="M12 21.75c2.63 0 4.83-.87 6.44-2.53l-3.06-2.37c-.82.55-1.9.94-3.38.94a5.87 5.87 0 0 1-5.55-4.06l-.1.01-3 2.32-.03.1A9.72 9.72 0 0 0 12 21.75Z"/>
  <path fill="#FBBC05" d="M6.45 13.73A5.99 5.99 0 0 1 6.13 12c0-.6.11-1.19.31-1.73v-.11L3.41 7.81l-.1.05A9.74 9.74 0 0 0 2.25 12c0 1.49.38 2.89 1.06 4.14l3.14-2.41Z"/>
  <path fill="#EA4335" d="M12 6.21c1.83 0 3.06.79 3.77 1.45l2.73-2.67C16.82 3.43 14.63 2.25 12 2.25a9.72 9.72 0 0 0-8.69 5.61l3.13 2.41A5.89 5.89 0 0 1 12 6.21Z"/>
</svg>
