<svg width="28" height="28" viewBox="0 0 28 28" fill="none" xmlns="http://www.w3.org/2000/svg">
<path d="M7.2 10.15a2.7 2.7 0 0 1 2.7-2.7h8.2a2.7 2.7 0 0 1 2.7 2.7v4.9a2.7 2.7 0 0 1-2.7 2.7h-3.62l-3.18 2.42c-.48.36-1.16.02-1.16-.58v-1.84h-.24a2.7 2.7 0 0 1-2.7-2.7v-4.9Z" stroke="#F5F7FF" stroke-width="2" stroke-linejoin="round"/>
<path d="M20.5 4.75v3.1M18.95 6.3h3.1M5.95 18.9v2.8M4.55 20.3h2.8" stroke="#53D6A4" stroke-width="1.45" stroke-linecap="round"/>
<path d="M11 12.15h6M11 15h3.7" stroke="#8B7CFF" stroke-width="1.45" stroke-linecap="round" opacity=".95"/>
</svg>
