<svg width="28" height="28" viewBox="0 0 28 28" fill="none" xmlns="http://www.w3.org/2000/svg">
<path d="M7.15 10.05h13.7l-1.2 11.55a2.3 2.3 0 0 1-2.3 2.05h-6.7a2.3 2.3 0 0 1-2.3-2.05L7.15 10.05Z" fill="#F8C853" stroke="#F5F7FF" stroke-width="1.55" stroke-linejoin="round"/>
<path d="M10.2 10.05V8.2a3.8 3.8 0 0 1 7.6 0v1.85" stroke="#A66A00" stroke-width="1.55" stroke-linecap="round"/>
<path d="M12.05 15.7h3.25a2.2 2.2 0 1 1 0 4.4H12.6" stroke="#8B7CFF" stroke-width="1.55" stroke-linecap="round" stroke-linejoin="round"/>
<path d="M13.9 13.85v8.1" stroke="#8B7CFF" stroke-width="1.55" stroke-linecap="round"/>
<path d="M20.25 4.45 21.1 6.2l1.95.3-1.4 1.38.32 1.92-1.72-.9-1.72.9.32-1.92-1.4-1.38 1.95-.3.85-1.75Z" fill="#FFF3B8" stroke="#F5F7FF" stroke-width="1.05" stroke-linejoin="round"/>
</svg>
