<svg width="28" height="28" viewBox="0 0 28 28" fill="none" xmlns="http://www.w3.org/2000/svg">
<path d="M4.6 8.25h12.55a2.2 2.2 0 0 1 2.2 2.2v7.1a2.2 2.2 0 0 1-2.2 2.2H4.6a2.2 2.2 0 0 1-2.2-2.2v-7.1a2.2 2.2 0 0 1 2.2-2.2Z" stroke="#F5F7FF" stroke-width="1.95" stroke-linejoin="round"/>
<path d="m19.35 12.1 5.35-3.02c.6-.34 1.35.09 1.35.78v8.28c0 .69-.75 1.12-1.35.78l-5.35-3.02V12.1Z" stroke="#F5F7FF" stroke-width="1.95" stroke-linejoin="round"/>
<path d="M9.95 11.8 14.4 14l-4.45 2.2v-4.4Z" fill="#8B7CFF" stroke="#F8C853" stroke-width="1.15" stroke-linejoin="round"/>
</svg>
