<svg width="28" height="28" viewBox="0 0 28 28" fill="none" xmlns="http://www.w3.org/2000/svg">
<path d="M13.9 6.25C8.5 6.25 5 10.2 3.8 14c1.2 3.8 4.7 7.75 10.1 7.75S23.6 17.8 24.8 14c-1.2-3.8-5.5-7.75-10.9-7.75Z" stroke="#F5F7FF" stroke-width="1.9" stroke-linejoin="round"/>
<path d="M14 17.65a3.65 3.65 0 1 0 0-7.3 3.65 3.65 0 0 0 0 7.3Z" stroke="#8B7CFF" stroke-width="1.55"/>
<path d="M20.9 8.15a2.5 2.5 0 1 0 0-5 2.5 2.5 0 0 0 0 5Z" fill="#53D6A4" stroke="#F5F7FF" stroke-width="1.2"/>
<path d="M20.9 6.45a.8.8 0 1 0 0-1.6.8.8 0 0 0 0 1.6Z" fill="#04120A"/>
</svg>
