<svg width="28" height="28" viewBox="0 0 28 28" fill="none" xmlns="http://www.w3.org/2000/svg">
<path d="M14 4.9a3.1 3.1 0 0 0-3.1 3.1v5.1a3.1 3.1 0 0 0 6.2 0V8A3.1 3.1 0 0 0 14 4.9Z" stroke="#F5F7FF" stroke-width="1.9" stroke-linejoin="round"/>
<path d="M7.85 12.55v.55a6.15 6.15 0 0 0 12.3 0v-.55M14 19.25v3.7" stroke="#F5F7FF" stroke-width="1.9" stroke-linecap="round"/>
<path d="M4.75 8.55c1.1-.75 2.2-.75 3.3 0M19.95 8.55c1.1-.75 2.2-.75 3.3 0M5.6 16.95c.86.42 1.74.42 2.6 0M19.8 16.95c.86.42 1.74.42 2.6 0" stroke="#8B7CFF" stroke-width="1.35" stroke-linecap="round"/>
<path d="m22.2 5.8-4.1 4.1M5.8 5.8l4.1 4.1" stroke="#F8C853" stroke-width="1.35" stroke-linecap="round"/>
</svg>
