<svg width="28" height="28" viewBox="0 0 28 28" fill="none" xmlns="http://www.w3.org/2000/svg">
<path d="M4.4 7.1h19.2c.88 0 1.6.72 1.6 1.6v11.1c0 .88-.72 1.6-1.6 1.6H4.4c-.88 0-1.6-.72-1.6-1.6V8.7c0-.88.72-1.6 1.6-1.6Z" stroke="#F5F7FF" stroke-width="1.95" stroke-linejoin="round"/>
<path d="m6.65 18.8 4.05-4.05 2.9 2.9 2.85-3.62 4.9 4.77" stroke="#F5F7FF" stroke-width="1.95" stroke-linecap="round" stroke-linejoin="round"/>
<path d="M19.25 5.05 20.1 6.8l1.92.28-1.38 1.35.33 1.9-1.72-.9-1.72.9.33-1.9-1.38-1.35 1.92-.28.85-1.75Z" fill="#F8C853" stroke="#F5F7FF" stroke-width="1.05" stroke-linejoin="round"/>
<path d="M8.9 11.9a1.65 1.65 0 1 0 0-3.3 1.65 1.65 0 0 0 0 3.3Z" fill="#8B7CFF"/>
</svg>
