<svg width="28" height="28" viewBox="0 0 28 28" fill="none" xmlns="http://www.w3.org/2000/svg">
<path d="M5.4 8.2a3 3 0 0 1 3-3h11.2a3 3 0 0 1 3 3v7.45a3 3 0 0 1-3 3h-6.15l-4.1 3.15c-.5.38-1.22.03-1.22-.6v-2.55A2.98 2.98 0 0 1 5.4 15.7V8.2Z" stroke="#F5F7FF" stroke-width="2" stroke-linejoin="round"/>
<path d="M9.1 13.7c1.35-1.92 3.02-2.88 4.92-2.88 1.9 0 3.56.96 4.88 2.88-1.32 1.92-2.98 2.88-4.88 2.88-1.9 0-3.57-.96-4.92-2.88Z" stroke="#8B7CFF" stroke-width="1.45" stroke-linejoin="round"/>
<path d="M14 14.95a1.25 1.25 0 1 0 0-2.5 1.25 1.25 0 0 0 0 2.5Z" fill="#8B7CFF"/>
</svg>
