<svg width="26" height="26" viewBox="0 0 26 26" fill="none" xmlns="http://www.w3.org/2000/svg">
<path d="M10.88 3.5h4.24l.64 2.36c.62.22 1.2.56 1.72 1l2.36-.64 2.12 3.68-1.72 1.72c.06.32.1.68.1 1.02s-.04.7-.1 1.02l1.72 1.72-2.12 3.68-2.36-.64c-.52.44-1.1.78-1.72 1l-.64 2.36h-4.24l-.64-2.36c-.62-.22-1.2-.56-1.72-1l-2.36.64-2.12-3.68 1.72-1.72a5.8 5.8 0 0 1-.1-1.02c0-.34.04-.7.1-1.02L4.04 9.9l2.12-3.68 2.36.64c.52-.44 1.1-.78 1.72-1l.64-2.36Z" stroke="#F5F7FF" stroke-width="1.55" stroke-linecap="round" stroke-linejoin="round"/>
<path d="M13 16.1a3.1 3.1 0 1 0 0-6.2 3.1 3.1 0 0 0 0 6.2Z" stroke="#8B7CFF" stroke-width="1.55"/>
</svg>
