<svg width="28" height="28" viewBox="0 0 28 28" fill="none" xmlns="http://www.w3.org/2000/svg">
<path d="M5.25 6.35h17.5a2.1 2.1 0 0 1 2.1 2.1v11.1a2.1 2.1 0 0 1-2.1 2.1H5.25a2.1 2.1 0 0 1-2.1-2.1V8.45a2.1 2.1 0 0 1 2.1-2.1Z" stroke="#F5F7FF" stroke-width="1.8" stroke-linejoin="round"/>
<path d="M8.15 10.2h4.25v7.6H8.15a1.2 1.2 0 0 1-1.2-1.2v-5.2a1.2 1.2 0 0 1 1.2-1.2Z" fill="#8B7CFF"/>
<path d="M15.4 11.15h5.2M15.4 14h5.2M15.4 16.85h3.25" stroke="#53D6A4" stroke-width="1.55" stroke-linecap="round"/>
</svg>
